PathFileType	4	(X/Y/Z)	/Users/itak/Documents/Research/Walk-IL/dataset/trc/00209_00009.trc
DataRate	CameraRate	NumFrames	NumMarkers	Units	OrigDataRate	OrigDataStartFrame	OrigNumFrames
100.000000	100.000000	4	53	mm	100.000000	176	707
Frame#	Time	RPSI			LPSI			L3			STRN			T10			C7			CLAV			RBAK			LBAK			LSHO			LUPA			LAEL			LAOL			LWTS			LWPS			LFRA			LIFD			LHPS			LHTS			RSHO			RUPA			RAEL			RAOL			RWTS			RWPS			RFRA			RIFD			RHTS			RHPS			RBHD			LFHD			RFHD			LBHD			LHIP			RHIP			RASI			LASI			LKNE			LTHI			LANK			LTIP			LTOE			LMT1			LMT5			LHEE			RKNE			RTHI			RANK			RTIP			RTOE			RMT1			RMT5			RHEE			
		X1	Y1	Z1	X2	Y2	Z2	X3	Y3	Z3	X4	Y4	Z4	X5	Y5	Z5	X6	Y6	Z6	X7	Y7	Z7	X8	Y8	Z8	X9	Y9	Z9	X10	Y10	Z10	X11	Y11	Z11	X12	Y12	Z12	X13	Y13	Z13	X14	Y14	Z14	X15	Y15	Z15	X16	Y16	Z16	X17	Y17	Z17	X18	Y18	Z18	X19	Y19	Z19	X20	Y20	Z20	X21	Y21	Z21	X22	Y22	Z22	X23	Y23	Z23	X24	Y24	Z24	X25	Y25	Z25	X26	Y26	Z26	X27	Y27	Z27	X28	Y28	Z28	X29	Y29	Z29	X30	Y30	Z30	X31	Y31	Z31	X32	Y32	Z32	X33	Y33	Z33	X34	Y34	Z34	X35	Y35	Z35	X36	Y36	Z36	X37	Y37	Z37	X38	Y38	Z38	X39	Y39	Z39	X40	Y40	Z40	X41	Y41	Z41	X42	Y42	Z42	X43	Y43	Z43	X44	Y44	Z44	X45	Y45	Z45	X46	Y46	Z46	X47	Y47	Z47	X48	Y48	Z48	X49	Y49	Z49	X50	Y50	Z50	X51	Y51	Z51	X52	Y52	Z52	X53	Y53	Z53	

177	1.76	-1368.551147460938	1053.89208984375	-58.34521102905273	-1362.021850585938	1062.326538085938	-178.246337890625	-1361.8671875	1139.525512695312	-134.1767272949219	-1109.138916015625	1315.066528320312	-124.8730010986328	-1366.481689453125	1268.035278320312	-125.7834548950195	-1290.080444335938	1526.156005859375	-124.0507583618164	-1129.236083984375	1433.522094726562	-122.1386795043945	-1375.452758789062	1390.761108398438	-54.27419281005859	-1309.6513671875	1491.636352539062	-235.7000732421875	-1219.302001953125	1490.6171875	-291.2723999023438	-1254.43310546875	1374.594360351562	-370.9959411621094	-1253.096313476562	1165.196044921875	-402.1471862792969	-1325.867797851562	1152.493896484375	-355.4007263183594	-1172.674926757812	928.084228515625	-348.6253967285156	-1199.203247070312	912.4765625	-426.6767272949219	-1235.632080078125	1056.971557617188	-416.9745788574219	-1163.6279296875	731.2185668945312	-361.5324096679688	-1182.624267578125	823.9068603515625	-423.5853271484375	-1138.794311523438	827.783935546875	-371.6365356445312	-1236.346923828125	1478.045043945312	45.20368576049805	-1258.02294921875	1413.005249023438	111.1540756225586	-1273.24169921875	1130.494262695312	148.2105712890625	-1312.795776367188	1126.672607421875	61.8291130065918	-1145.8447265625	912.7330932617188	86.68245697021484	-1189.789672851562	898.9844360351562	157.2678070068359	-1245.828369140625	1061.189208984375	156.5965118408203	-1133.82861328125	716.7747802734375	80.85504913330078	-1107.601806640625	790.0253295898438	95.42693328857422	-1152.463989257812	790.7991333007812	152.6671905517578	-1258.821533203125	1676.202026367188	-91.92041015625	-1041.353759765625	1721.831420898438	-141.848388671875	-1063.913208007812	1723.245483398438	-44.22511672973633	-1185.646850585938	1681.1884765625	-211.2418365478516	-1254.97021484375	1000.049438476562	-314.2252197265625	-1276.41357421875	1007.270141601562	53.66534423828125	-1177.634033203125	1048.070068359375	20.59807395935059	-1153.764526367188	1038.717895507812	-260.84375	-1174.30322265625	515.2474975585938	-284.9346008300781	-1193.854248046875	659.5757446289062	-311.749267578125	-1306.117065429688	48.42025375366211	-295.7204284667969	-1246.376098632812	295.0038757324219	-300.1132202148438	-1093.638427734375	51.89223098754883	-246.6754150390625	-1160.729125976562	44.52379608154297	-202.8399658203125	-1180.310791015625	44.29657745361328	-315.1625671386719	-1366.890014648438	59.17216491699219	-243.1564178466797	-1258.25048828125	513.7525024414062	-6.998427391052246	-1226.6884765625	780.5947875976562	52.45441055297852	-1339.862670898438	39.35543441772461	-68.04444122314453	-1255.2099609375	398.7850036621094	-32.72274398803711	-1124.218017578125	48.42692947387695	-79.52864074707031	-1175.25634765625	44.95791244506836	-128.6172943115234	-1234.4853515625	42.08925628662109	-25.5866756439209	-1392.317138671875	38.09589004516602	-135.8411560058594	
178	1.77	-1368.099609375	1053.876586914062	-57.68599700927734	-1361.940307617188	1062.300415039062	-177.6224975585938	-1361.534301757812	1139.669189453125	-133.5444030761719	-1108.47265625	1314.866455078125	-124.9179000854492	-1365.830322265625	1268.20556640625	-125.2050552368164	-1289.121948242188	1526.201782226562	-123.7211074829102	-1128.340087890625	1433.372436523438	-122.1222381591797	-1374.542724609375	1390.92431640625	-53.76819229125977	-1308.967895507812	1491.723876953125	-235.3388977050781	-1218.722412109375	1490.597045898438	-291.0693359375	-1254.265869140625	1374.622314453125	-370.7697448730469	-1253.291748046875	1165.260375976562	-401.9856872558594	-1325.847778320312	1152.651733398438	-355.06298828125	-1172.834594726562	928.0686645507812	-348.6453857421875	-1199.6279296875	912.4692993164062	-426.6309204101562	-1236.0146484375	1057.040161132812	-416.8134765625	-1164.14208984375	731.2290649414062	-361.5960083007812	-1183.18505859375	823.927734375	-423.5916748046875	-1139.07421875	827.7612915039062	-371.6938781738281	-1235.137084960938	1478.036743164062	45.41912841796875	-1256.753662109375	1413.046997070312	111.4159164428711	-1272.064086914062	1130.558715820312	148.6300506591797	-1311.768432617188	1126.682373046875	62.33589935302734	-1144.780395507812	912.7413940429688	87.09945678710938	-1188.699951171875	899.020263671875	157.7750549316406	-1244.69970703125	1061.288208007812	157.0785522460938	-1132.96630859375	716.6934204101562	81.44631958007812	-1106.746459960938	789.9581298828125	95.95172119140625	-1151.448608398438	790.8718872070312	153.2054901123047	-1257.647338867188	1676.195068359375	-91.74180603027344	-1040.113891601562	1721.544677734375	-141.8216552734375	-1062.618774414062	1722.9677734375	-44.17958068847656	-1184.481201171875	1681.129760742188	-211.1129455566406	-1255.13232421875	1000.104248046875	-313.8690490722656	-1275.740234375	1007.114624023438	54.08702087402344	-1177.09619140625	1048.020385742188	20.81809425354004	-1153.860595703125	1038.730590820312	-260.5973205566406	-1170.66064453125	515.7203979492188	-284.3989562988281	-1191.372924804688	659.869384765625	-311.0482788085938	-1305.862670898438	49.34029388427734	-295.6084289550781	-1244.26123046875	295.7401123046875	-299.7967529296875	-1093.546142578125	52.93450927734375	-247.0603942871094	-1160.381591796875	45.32376861572266	-203.0787353515625	-1180.211669921875	44.93571472167969	-315.3571472167969	-1366.554565429688	60.41432571411133	-243.0275573730469	-1258.068603515625	513.6702270507812	-6.796800136566162	-1226.109375	780.4344482421875	52.65586853027344	-1339.862670898438	39.35406494140625	-68.04299926757812	-1255.140014648438	398.6976013183594	-32.57954025268555	-1124.211303710938	48.41851806640625	-79.53085327148438	-1175.232055664062	44.91920471191406	-128.6847229003906	-1234.493530273438	42.09548568725586	-25.57673835754395	-1392.339599609375	38.0902214050293	-135.8205718994141	
179	1.78	-1367.632080078125	1053.863403320312	-57.04103851318359	-1361.834716796875	1062.280517578125	-177.0081024169922	-1361.169921875	1139.829345703125	-132.9057464599609	-1107.772094726562	1314.662475585938	-124.9894027709961	-1365.15380859375	1268.385986328125	-124.6230239868164	-1288.136840820312	1526.257934570312	-123.4023742675781	-1127.416137695312	1433.236083984375	-122.1435089111328	-1373.597290039062	1391.097900390625	-53.25399017333984	-1308.273315429688	1491.822631835938	-234.9803161621094	-1218.134399414062	1490.588256835938	-290.8854675292969	-1254.062622070312	1374.670532226562	-370.5402526855469	-1253.505981445312	1165.341064453125	-401.849853515625	-1325.827392578125	1152.819091796875	-354.734375	-1172.940185546875	928.0752563476562	-348.6961364746094	-1200.05615234375	912.493896484375	-426.6198120117188	-1236.384155273438	1057.140747070312	-416.6975708007812	-1164.594482421875	731.2622680664062	-361.6863708496094	-1183.706909179688	823.9681396484375	-423.625	-1139.328735351562	827.771728515625	-371.7718505859375	-1233.851440429688	1478.034912109375	45.61399078369141	-1255.39697265625	1413.095336914062	111.6595687866211	-1270.830322265625	1130.634643554688	149.0395660400391	-1310.70458984375	1126.711669921875	62.83614730834961	-1143.66650390625	912.7562255859375	87.47940063476562	-1187.565673828125	899.0717163085938	158.2496643066406	-1243.503540039062	1061.381591796875	157.5327911376953	-1132.075561523438	716.6259155273438	81.99919128417969	-1105.8232421875	789.902587890625	96.43795013427734	-1150.381103515625	790.941650390625	153.6983489990234	-1256.43798828125	1676.203979492188	-91.59324645996094	-1038.855590820312	1721.259887695312	-141.8492279052734	-1061.293334960938	1722.698364257812	-44.17631149291992	-1183.32958984375	1681.076293945312	-211.0290985107422	-1255.275146484375	1000.18701171875	-313.5372314453125	-1275.089965820312	1006.98291015625	54.50444793701172	-1176.529541015625	1047.9775390625	21.00528717041016	-1153.958374023438	1038.764282226562	-260.3829345703125	-1166.910888671875	516.2551879882812	-283.8758544921875	-1188.7607421875	660.230224609375	-310.3378601074219	-1305.513916015625	50.3904914855957	-295.4409790039062	-1242.030517578125	296.5344543457031	-299.4554443359375	-1093.303100585938	53.99982833862305	-247.4000091552734	-1159.89697265625	46.17229461669922	-203.2561340332031	-1179.999633789062	45.69309234619141	-315.5230407714844	-1366.080932617188	61.73826217651367	-242.7975769042969	-1257.867431640625	513.585205078125	-6.622822284698486	-1225.512939453125	780.2644653320312	52.828369140625	-1339.863037109375	39.35296630859375	-68.04206848144531	-1255.063110351562	398.6178588867188	-32.45113754272461	-1124.198120117188	48.40617752075195	-79.52909851074219	-1175.200927734375	44.88191223144531	-128.7539215087891	-1234.498413085938	42.09865570068359	-25.57371520996094	-1392.361450195312	38.08440017700195	-135.8012084960938	
180	1.79	-1367.150634765625	1053.848754882812	-56.41701126098633	-1361.702026367188	1062.264892578125	-176.4076080322266	-1360.78955078125	1140.0068359375	-132.2685546875	-1107.039794921875	1314.45947265625	-125.0898818969727	-1364.455200195312	1268.576904296875	-124.0389175415039	-1287.125244140625	1526.323852539062	-123.0954513549805	-1126.467041015625	1433.11181640625	-122.2045059204102	-1372.611206054688	1391.283813476562	-52.72978210449219	-1307.567016601562	1491.931396484375	-234.6231231689453	-1217.538330078125	1490.588745117188	-290.7222900390625	-1253.820068359375	1374.73779296875	-370.3066711425781	-1253.732421875	1165.43701171875	-401.7367858886719	-1325.818359375	1152.994384765625	-354.4159545898438	-1173	928.102294921875	-348.7787170410156	-1200.489868164062	912.5499877929688	-426.642822265625	-1236.733764648438	1057.266479492188	-416.6301879882812	-1164.972412109375	731.3143920898438	-361.800537109375	-1184.196533203125	824.0277709960938	-423.6866149902344	-1139.578247070312	827.8145141601562	-371.8788146972656	-1232.489868164062	1478.038818359375	45.78696060180664	-1253.949462890625	1413.149780273438	111.8883895874023	-1269.536254882812	1130.721313476562	149.4464721679688	-1309.602661132812	1126.760620117188	63.33993530273438	-1142.512817382812	912.7696533203125	87.81835174560547	-1186.385864257812	899.1364135742188	158.6889038085938	-1242.235107421875	1061.46875	157.9596252441406	-1131.15673828125	716.568359375	82.50439453125	-1104.826782226562	789.8534545898438	96.87197113037109	-1149.257202148438	791.0028076171875	154.1415100097656	-1255.193725585938	1676.229736328125	-91.47052001953125	-1037.588623046875	1720.977905273438	-141.9306945800781	-1059.9365234375	1722.438598632812	-44.21520233154297	-1182.190185546875	1681.023803710938	-210.9929504394531	-1255.38916015625	1000.30029296875	-313.2313232421875	-1274.4697265625	1006.880920410156	54.91426849365234	-1175.918090820312	1047.94189453125	21.16759490966797	-1154.049682617188	1038.821166992188	-260.1967468261719	-1163.078857421875	516.8532104492188	-283.3749389648438	-1186.032836914062	660.6632080078125	-309.6275634765625	-1305.030395507812	51.56322860717773	-295.2137451171875	-1239.6845703125	297.3787536621094	-299.0880432128906	-1092.8662109375	55.08530807495117	-247.6848754882812	-1159.236450195312	47.06081771850586	-203.3704986572266	-1179.633178710938	46.57181167602539	-315.6463012695312	-1365.435424804688	63.12076950073242	-242.4599456787109	-1257.646728515625	513.49560546875	-6.478876113891602	-1224.898803710938	780.0867309570312	52.97124099731445	-1339.86376953125	39.35276031494141	-68.04189300537109	-1254.973022460938	398.5460205078125	-32.33570861816406	-1124.180053710938	48.39072418212891	-79.5238037109375	-1175.15771484375	44.84870147705078	-128.8281555175781	-1234.500366210938	42.09974670410156	-25.57662200927734	-1392.381469726562	38.07905578613281	-135.7837982177734	
